:SAMPLES-PER-SECOND 30
:FULLY-SPECIFIED
:DEGREES
1192
root  10.6396 37.9656 8.00795 93.7384 84.23 92.9794
RightUpLeg  18.517 -13.61 -13.2361
RightLeg  10.0924 -4.94055 0.389308
RightFoot  -22.3662 0.80304 9.84727
RightToes  6.35927e-011 1.30204e-014 -6.03759e-014
Spine  6.76373 1.20995 5.18108
Spine1  7.34987 3.37188 -7.4577
HEad  -17.5838 2.43353 -4.58734
LeftShoulder1  -0.3845 4.52866 -31.3792
LeftArm  -7.13789 13.4716 -36.7025
LeftForeArm  21.3242 -39.5846 -7.91045
LeftHand  -0.114545 3.98672 8.26495
RightShoulder  -0.721394 -5.52078 29.097
RightArm  27.1783 -0.876504 48.2504
RightForeArm  1.82179 14.3632 8.07339
RightHand  -0.334828 3.57868 -4.58461
LeftUpLeg  -23.2724 6.19478 -6.42202
LeftLeg  20.3661 4.04545 1.98754
LeftFoot  0.897278 -0.226752 2.09831
LeftToes  -7.16024e-010 4.79583e-011 -5.98286e-011
1193
root  11.5548 37.7715 7.73296 102.369 83.3767 102.537
RightUpLeg  19.5455 -15.0518 -15.5428
RightLeg  14.0197 -2.60026 -0.207116
RightFoot  -22.7753 1.28171 14.2595
RightToes  6.35927e-011 1.30204e-014 -6.03759e-014
Spine  7.30842 0.901845 3.40464
Spine1  7.298 2.92822 -7.47386
HEad  -17.4365 1.76935 -3.96775
LeftShoulder1  -0.390116 4.5342 -31.7276
LeftArm  -5.32298 12.4455 -36.7334
LeftForeArm  19.1377 -34.1527 -6.505
LeftHand  -0.0844177 4.41432 8.08213
RightShoulder  -0.728921 -5.54413 29.0616
RightArm  27.0185 -1.28644 48.2945
RightForeArm  1.14958 15.29 7.54091
RightHand  -0.323176 3.51085 -4.46373
LeftUpLeg  -22.5883 5.3608 -7.58263
LeftLeg  23.6973 3.73854 2.13319
LeftFoot  -0.429755 -0.343841 3.63697
LeftToes  -7.16024e-010 4.79583e-011 -5.98286e-011
1194
root  12.3991 37.6591 7.45394 105.847 82.4363 106.987
RightUpLeg  18.4708 -14.0729 -16.9297
RightLeg  21.0454 -2.09186 -1.23279
RightFoot  -21.4302 1.63758 20.3182
RightToes  6.35927e-011 1.30204e-014 -6.03759e-014
Spine  8.20807 0.938882 1.59257
Spine1  7.31986 2.74335 -7.75266
HEad  -16.9283 0.953486 -3.7242
LeftShoulder1  -0.369759 4.47335 -32.0015
LeftArm  -2.51137 10.8414 -37.4371
LeftForeArm  15.9037 -26.8323 -4.96149
LeftHand  -0.045783 4.9963 7.81556
RightShoulder  -0.708825 -5.49267 28.9638
RightArm  26.186 -1.66171 48.1918
RightForeArm  -0.0757873 15.6946 7.25567
RightHand  -0.342858 3.48089 -4.73338
LeftUpLeg  -21.1494 4.84679 -8.71899
LeftLeg  25.92 3.83557 2.37176
LeftFoot  -3.1464 -0.27989 4.14873
LeftToes  -7.16024e-010 4.79583e-011 -5.98286e-011
1195
root  13.2566 37.704 7.17027 103.247 82.0175 104.93
RightUpLeg  14.084 -10.7742 -16.9852
RightLeg  31.7896 -4.31138 -3.15727
RightFoot  -15.0125 0.644114 21.3734
RightToes  6.35927e-011 1.30204e-014 -6.03759e-014
Spine  8.85176 1.23605 0.357424
Spine1  6.93311 2.84503 -8.12763
HEad  -16.0749 0.613333 -3.55094
LeftShoulder1  -0.351578 4.4256 -32.0054
LeftArm  -1.25282 9.90371 -38.3758
LeftForeArm  13.8732 -19.321 -4.63774
LeftHand  0.00099682 5.80643 7.02821
RightShoulder  -0.669781 -5.3901 28.8074
RightArm  26.1524 -1.60355 48.1571
RightForeArm  -1.21089 15.7104 7.2912
RightHand  -0.372811 3.46805 -5.13214
LeftUpLeg  -19.1312 5.10183 -9.46108
LeftLeg  26.2941 3.98763 2.49122
LeftFoot  -5.41583 -0.173164 3.97229
LeftToes  -7.16024e-010 4.79583e-011 -5.98286e-011
1196
root  14.1471 37.8517 6.90575 99.6368 81.8615 101.484
RightUpLeg  7.54565 -7.87582 -16.7095
RightLeg  43.6637 -4.57879 -4.87788
RightFoot  -4.55231 -0.8892 14.9718
RightToes  6.35927e-011 1.30204e-014 -6.03759e-014
Spine  9.19142 1.34246 -0.725761
Spine1  6.25467 2.78999 -8.18959
HEad  -15.4964 0.892778 -3.20319
LeftShoulder1  -0.332944 4.37844 -31.9346
LeftArm  -5.22023 10.1369 -38.7118
LeftForeArm  17.3954 -13.061 -6.29635
LeftHand  0.0408827 6.888 5.57176
RightShoulder  -0.644465 -5.32826 28.6088
RightArm  26.9663 -1.15171 48.408
RightForeArm  -1.51407 15.998 7.24804
RightHand  -0.377047 3.47331 -5.18471
LeftUpLeg  -16.9427 5.42254 -9.94728
LeftLeg  25.5269 4.15014 2.50875
LeftFoot  -6.7571 -0.108932 3.74301
LeftToes  -7.16024e-010 4.79583e-011 -5.98286e-011
1197
root  14.9939 37.9467 6.68783 97.7793 81.6799 99.9229
RightUpLeg  0.980586 -5.23554 -16.2212
RightLeg  53.3737 -1.80871 -2.92393
RightFoot  2.81576 -1.05026 8.27466
RightToes  6.35927e-011 1.30204e-014 -6.03759e-014
Spine  9.66349 1.25092 -2.09218
Spine1  5.94267 2.42274 -7.96446
HEad  -15.6694 1.44958 -2.86545
LeftShoulder1  -0.311015 4.31604 -32.1625
LeftArm  -6.9273 10.815 -38.4869
LeftForeArm  20.2368 -8.95676 -6.95844
LeftHand  0.046726 7.89314 3.88023
RightShoulder  -0.654852 -5.3632 28.5117
RightArm  27.8939 -0.727703 48.7554
RightForeArm  -1.7767 17.2065 6.71955
RightHand  -0.367403 3.63244 -4.98017
LeftUpLeg  -14.9122 5.18209 -10.3511
LeftLeg  25.1757 4.64017 2.73047
LeftFoot  -8.16481 -0.051214 3.61996
LeftToes  -7.16024e-010 4.79583e-011 -5.98286e-011
1198
root  15.8325 38.0247 6.50143 96.9599 81.6773 99.688
RightUpLeg  -4.4626 -2.77413 -15.3851
RightLeg  59.6753 1.47692 2.22075
RightFoot  3.38032 -0.880752 7.003
RightToes  6.35927e-011 1.30204e-014 -6.03759e-014
Spine  10.2325 1.12548 -3.16594
Spine1  6.13442 2.04428 -7.83059
HEad  -16.336 1.95562 -2.73666
LeftShoulder1  -0.307862 4.29636 -32.7066
LeftArm  -6.4475 11.2196 -37.9232
LeftForeArm  22.9542 -6.3552 -7.34924
LeftHand  0.0259509 8.41728 2.57863
RightShoulder  -0.69034 -5.45712 28.6573
RightArm  28.4111 -0.641963 48.8591
RightForeArm  -2.86951 19.2352 5.87254
RightHand  -0.375092 3.93047 -4.93434
LeftUpLeg  -12.5933 4.75043 -10.4924
LeftLeg  24.8944 5.26543 3.01822
LeftFoot  -9.89607 0.0170277 3.32515
LeftToes  -7.16024e-010 4.79583e-011 -5.98286e-011
1199
root  16.7189 38.1158 6.33035 95.5768 81.8813 98.7025
RightUpLeg  -9.4665 -0.72281 -14.2995
RightLeg  62.598 3.38894 6.49532
RightFoot  0.662049 -0.915119 8.73299
RightToes  6.35927e-011 1.30204e-014 -6.03759e-014
Spine  10.4939 1.02995 -3.74373
Spine1  6.33081 1.85122 -8.02124
HEad  -16.9209 2.4003 -2.69247
LeftShoulder1  -0.330483 4.34376 -33.2064
LeftArm  -5.59804 11.5958 -37.4596
LeftForeArm  25.5449 -4.74564 -7.69724
LeftHand  0.00897769 8.63384 1.88988
RightShoulder  -0.722808 -5.53516 28.9171
RightArm  28.3048 -0.888908 48.7662
RightForeArm  -3.88685 21.3983 5.27524
RightHand  -0.397042 4.20252 -5.077
LeftUpLeg  -10.2228 4.62875 -10.3804
LeftLeg  24.2344 5.64358 3.0544
LeftFoot  -11.5521 0.0744922 2.77071
LeftToes  -7.16024e-010 4.79583e-011 -5.98286e-011
1200
root  17.6602 38.2291 6.15473 94.7958 82.253 97.9453
RightUpLeg  -14.4154 0.411565 -13.0081
RightLeg  62.2651 3.49882 6.69906
RightFoot  -1.10843 -0.82402 9.07841
RightToes  6.35927e-011 1.30204e-014 -6.03759e-014
Spine  10.4362 0.82293 -3.91345
Spine1  6.16169 1.68689 -8.2006
HEad  -17.2506 2.73905 -2.50397
LeftShoulder1  -0.351615 4.39149 -33.4691
LeftArm  -5.22804 12.2828 -37.3694
LeftForeArm  27.0202 -4.02982 -7.85973
LeftHand  0.000207979 8.92312 1.50833
RightShoulder  -0.734354 -5.5619 29.021
RightArm  27.7424 -1.28199 48.7557
RightForeArm  -3.66841 23.1561 5.17083
RightHand  -0.411812 4.41521 -5.15456
LeftUpLeg  -7.97992 4.56464 -10.0353
LeftLeg  23.1484 5.88915 2.78052
LeftFoot  -12.819 0.109144 2.45519
LeftToes  -7.16024e-010 4.79583e-011 -5.98286e-011
1201
root  18.621 38.3665 5.95627 96.4929 82.8091 99.7325
RightUpLeg  -18.47 0.5219 -11.4904
RightLeg  58.7102 2.31957 3.7162
RightFoot  -1.86095 -0.629512 7.41573
RightToes  6.35927e-011 1.30204e-014 -6.03759e-014
Spine  10.5201 0.44886 -3.6485
Spine1  5.86204 1.40403 -8.0229
HEad  -17.6332 2.95056 -2.28765
LeftShoulder1  -0.348632 4.37957 -33.6661
LeftArm  -5.23354 12.8318 -37.5803
LeftForeArm  27.1827 -3.81075 -7.83848
LeftHand  -0.00498635 9.17295 1.31496
RightShoulder  -0.727696 -5.54734 28.9461
RightArm  27.2585 -1.5557 48.849
RightForeArm  -2.73035 24.3162 5.33393
RightHand  -0.423852 4.66681 -5.17858
LeftUpLeg  -5.44596 4.45644 -9.49429
LeftLeg  21.6606 5.98918 2.41221
LeftFoot  -13.7945 0.140304 2.6723
LeftToes  -7.16024e-010 4.79583e-011 -5.98286e-011
1202
root  19.5856 38.4503 5.75177 100.656 83.2627 104.228
RightUpLeg  -20.9539 -0.180847 -10.077
RightLeg  51.9583 0.987414 0.985526
RightFoot  -3.29418 -0.518183 7.08715
RightToes  6.35927e-011 1.30204e-014 -6.03759e-014
Spine  10.8174 0.0476116 -3.28402
Spine1  5.76806 1.07695 -7.72009
HEad  -18.1294 2.86803 -2.16535
LeftShoulder1  -0.32409 4.31302 -33.9051
LeftArm  -5.24366 12.6339 -37.8957
LeftForeArm  26.7047 -3.56221 -7.84283
LeftHand  0.00298819 9.10938 1.56314
RightShoulder  -0.719313 -5.52357 28.9454
RightArm  27.5452 -1.52602 48.8479
RightForeArm  -2.45918 24.7758 5.43068
RightHand  -0.447376 4.93288 -5.32435
LeftUpLeg  -2.74182 4.42706 -9.00577
LeftLeg  20.3408 5.77334 2.05756
LeftFoot  -14.8824 0.180766 2.96169
LeftToes  -7.16024e-010 4.79583e-011 -5.98286e-011
1203
root  20.5959 38.4643 5.55473 106.595 83.3943 110.357
RightUpLeg  -22.1818 -1.60044 -8.8549
RightLeg  42.3314 0.617309 0.285126
RightFoot  -4.50461 -0.539756 8.48041
RightToes  6.35927e-011 1.30204e-014 -6.03759e-014
Spine  10.8896 -0.329172 -2.9565
Spine1  5.77243 0.80616 -7.5107
HEad  -18.5088 2.54289 -2.051
LeftShoulder1  -0.290687 4.22697 -34.0496
LeftArm  -4.9503 11.7132 -38.2204
LeftForeArm  26.2965 -3.27393 -8.0469
LeftHand  0.0224007 8.88748 2.19084
RightShoulder  -0.719904 -5.51466 29.13
RightArm  28.6091 -1.34265 48.7116
RightForeArm  -2.95022 24.4527 5.37613
RightHand  -0.462264 5.01495 -5.45308
LeftUpLeg  -0.235919 4.61054 -8.67551
LeftLeg  19.2052 5.08739 1.58102
LeftFoot  -15.888 0.221168 3.16647
LeftToes  -7.16024e-010 4.79583e-011 -5.98286e-011
1204
root  21.6634 38.4653 5.361 113.327 83.2815 117.097
RightUpLeg  -22.4938 -3.37249 -7.58666
RightLeg  30.8746 1.25328 0.568176
RightFoot  -4.1252 -0.593183 8.94453
RightToes  6.35927e-011 1.30204e-014 -6.03759e-014
Spine  10.7772 -0.648219 -2.47772
Spine1  5.74165 0.614624 -7.25799
HEad  -18.6982 2.09338 -1.87144
LeftShoulder1  -0.266473 4.1658 -34.1075
LeftArm  -4.40039 10.3256 -38.5083
LeftForeArm  26.5003 -3.2497 -8.42576
LeftHand  0.03323 8.81229 2.63004
RightShoulder  -0.721713 -5.51 29.3022
RightArm  29.8783 -1.3164 48.6146
RightForeArm  -3.54881 23.379 5.2093
RightHand  -0.445136 4.85457 -5.3348
LeftUpLeg  2.34268 4.89325 -8.37106
LeftLeg  17.6871 4.23715 0.991854
LeftFoot  -16.3719 0.26495 3.78915
LeftToes  -7.16024e-010 4.79583e-011 -5.98286e-011
